<?xml version="1.0" encoding="utf-8"?>
<!-- Generator: Adobe Illustrator 17.0.0, SVG Export Plug-In . SVG Version: 6.00 Build 0)  -->
<!DOCTYPE svg PUBLIC "-//W3C//DTD SVG 1.1//EN" "http://www.w3.org/Graphics/SVG/1.1/DTD/svg11.dtd">
<svg version="1.1" id="Layer_1" xmlns="http://www.w3.org/2000/svg" xmlns:xlink="http://www.w3.org/1999/xlink" x="0px" y="0px"
	 width="359.7px" height="360px" viewBox="216.3 126 359.7 360" style="enable-background:new 216.3 126 359.7 360;"
	 xml:space="preserve">
<style type="text/css">
	.st0{fill:#467082;}
</style>
<g id="SWuzTA_1_">
	<g id="XMLID_2_">
		<g>
			<path class="st0" d="M576,298.4c0,5,0,10,0,15c-3.5,53.4-24.6,92-53.5,120.6c-28.9,28.6-68.2,49.2-122.7,52.1c-3.1,0-6.2,0-9.3,0
				c-27.5-1.6-51.1-8.1-71.5-17.6c-20-9.2-37.3-22.1-51.5-37.1c-7.2-7.7-14-15.4-20.1-24.2c-17.8-25.9-31.1-59.3-31.1-101.6
				c0-27.6,6.3-51.9,15.4-72.8c9-20.6,21.6-38.3,36.1-52.7c29.9-29.6,67.2-51.2,123.6-54.1c3.2,0,6.4,0,9.6,0
				c54.5,2.7,93,23.9,121.8,52.4c17.9,17.7,32.8,39.6,42.5,65.9c1.5,4,3.1,8.3,4.1,12.4C572.4,269.3,575.2,283.3,576,298.4z
				 M567.6,345.9c5.5-23.9,6.7-56.6-0.3-82c-2,1.9-4.1,4.3-6.4,6.3c-6.6,5.6-15.7,9.5-25.3,12.1c-13.1,24.2-22.5,52-31.1,80.6
				c9.3,0.2,16.4-1.8,21.5-5.8c2.1-6.8,4.4-14,7.9-19.9c0.9-1.5,2.7-4.6,5.2-4c2.3,0.6,2.1,4.2,1.7,6.9c-0.7,5.3-3.5,9.6-6.1,12.7
				c-1.6,1.9-3.7,2.9-4.7,4.9c-1,2-1.4,4.9-2,7.5c-0.7,2.7-1.2,5.4-1.7,8.1c-2.9,12.8-8.2,24.7-16.3,31.9c-1.7,1.5-3.6,3.1-5.8,3.5
				c-2.1-2.8-0.5-2.5,1.2-3.7c11.4-9,13.9-27.5,18.9-43.2c-5.3,2.9-11.9,4.5-20.4,4.3c-16,47.9-35.2,92.6-78.5,113.4
				c-0.2,0-0.3,0.2,0,0.3c50.9-9.6,87.8-35.2,113.4-70.8C551.2,391.6,561.8,370.8,567.6,345.9z M559.7,267c3.1-2.6,8.6-7.5,4.7-11.8
				c-14.2,2.4-19.7,13.3-26.5,23C544.6,276.1,554.1,271.8,559.7,267z M543.1,265.3c5.1-5.9,11.2-11.9,20.6-12.9
				c-10.9-34.7-31.9-63.4-57.9-84c-16-12.6-34.6-23.1-55.5-29.9c-30.1-9.7-67.3-11.3-99.5-2.6c-30.5,8.2-56.2,23.5-75.9,42
				c-0.1,0.3-0.4,0.7,0,0.3c9.8-7.2,19.9-13.7,32-18.4c12.1-4.7,26-8.6,42.7-8.1c28.4,1,46.9,12.6,59.9,28.8
				c0.9,1.1,4.6,6.5,5.8,6.9c1.2,0.4,3.4,0,4.9,0c6.5,0.1,11,0.5,16,1.4c24.8,4.7,43.4,19.3,50.6,41.4c2,6,2.4,12.4,3.8,19.3
				c3.9,18.9,15.4,37.2,41.3,30.8C535.8,275.6,539,270,543.1,265.3z M532.4,350.7c2.6-3.7,7.1-8.5,5.5-14.4
				C535.3,340.3,533.3,346.2,532.4,350.7z M530.1,283.4c-2.2,0.5-4.2,1-5.8,1.2c-24.5,2.3-37.6-14-43-31.4c-2-6.5-2.8-13.5-4.1-21
				c-4.1-24.2-21-37.6-46.5-40.9c-3.7-0.5-8.1-1.3-11.9-0.9c-0.8,0.1-3,0.1-1.5,1.2c9,15.3,14.5,35.7,16.3,59
				c1.8,23.9-1.2,47.9-6.4,67.6c27.2-0.3,41.1,18.7,40.7,46.3c7.2-0.7,14.9-1,23-0.9C501.7,334.8,514.7,307.9,530.1,283.4z
				 M489.3,366.9c-7.6-0.1-14.7,0.2-21.5,0.9c-1,16.9-5.8,31.4-13.1,44.6c-6.4,11.6-16,24.4-28.2,29.6c-2.8,1.2-8,2.5-11.3,1.4
				c-6.3-2-8.5-11.2-7.9-20.4c0.6-7.7,3.6-15.2,7.3-21.6c10.5-18,27-32.4,50.6-36.5c0.9-24.9-13.6-44.4-38.4-43.5
				c-1.5,0.3-1.4,2.2-1.7,3.2c-3.1,9.5-6.4,17.4-10.2,25.6c-14,30.1-34.8,55.6-66.3,67.9c-1,16,1.8,29.8,7.3,40.9
				c5.2,10.5,14.1,20,26.8,22.4c4.1,0.8,8.9,0.6,13.4,0.6c4.6,0,9.6,0.1,13.4-0.6c7.5-1.4,14.8-4.7,20.1-7.8
				c11.9-7,20.3-17.6,27-28.5C471.2,421.5,479.7,393,489.3,366.9z M465.2,368.6c0-0.2,0-0.3-0.3-0.3c-16.8,2-31.9,12.9-41.6,25
				c-4.6,5.8-8.6,12.7-11.3,21.6c-2.2,7-4,22.7,3.5,25.3c5,1.8,11.5-1.5,14.5-3.5c4.9-3.1,9.2-7.9,13.1-12.7
				C454.6,409.8,463.3,391.3,465.2,368.6z M421.3,318.8c6.5-19.1,10.6-42.9,9.6-67.6c-1-23.9-8.3-45.2-17.4-60.4
				c-42.8,3.9-75.1,28.6-96.8,54.4c-22.9,27.3-40,62.6-38.1,111.4c23.4-1.1,39.4-8.8,52.1-21.3c5.8-5.7,11.9-12.6,16.3-20.1
				c3.3-5.7,6.2-12.5,8.4-19c0.6-1.8,0.9-6.5,3.5-5.2c1.3,0.7,0.7,1.4,0.3,3.2c-0.2,1.1-0.8,2.5-1.2,3.5
				c-5.8,17.4-14.3,29.3-25.6,40.3c-13.2,12.8-29.7,20.7-53.8,21.9c1.4,19,8.1,34.5,18.9,45.2c10,9.9,29.2,17.8,48.6,10.4
				c2.6-25.1,12.1-45.3,24.4-61.3C382.6,338.1,398.1,323.5,421.3,318.8z M420.4,322.3c0-0.2,0-0.3-0.3-0.3
				c-10.2,2.3-19.6,7.5-27.6,13.8c-22.8,17.8-39.3,43.7-43.6,78.3c18.8-7.5,32.4-21.9,43.9-37.4
				C404.5,360.9,413.5,342.2,420.4,322.3z M410.8,187.9c0.1-1.5-1.2-2.7-2-3.7c-13.2-17.1-34.8-31-66.3-29.4
				c-26.4,1.4-49.5,12.8-66.9,26.8c-17.9,14.4-30.8,31.8-40.1,52.4c-9.9,21.8-14.2,51.5-7.6,77.7c6.1,24.2,19.7,42.5,48,44.6
				c-1.6-24.9,3-46.3,10.2-64.7c14.3-36.8,37.3-63.9,68.6-83.5C370.4,198.2,388.5,189.7,410.8,187.9z M371,480.2
				c-2.4-2.2-5.9-4.2-8.4-6.6c-12-11.7-17.6-31.3-16.9-54.7c-20.9,6.3-39.9-1.4-50.6-12.1c-11.2-11.2-17.7-28-19.5-47.5
				c-20.1-1.5-33.1-11.5-41.3-24.7c-8.4-13.6-12.4-32-12.8-53.2c-3.6,28.7-0.5,55.6,6.7,77.7c7.2,22.2,17.7,41.6,30.5,57.3
				C285,448.5,321.2,472.2,371,480.2z"/>
		</g>
	</g>
</g>
</svg>
